<svg id="图层_1" data-name="图层 1" xmlns="http://www.w3.org/2000/svg" viewBox="0 0 782.71 420.63"><defs><style>.cls-1{fill:#e6e6e6;}.cls-2{fill:#f7a61e;}.cls-3{fill:#f7931e;}.cls-4{fill:#ffc500;}.cls-5{fill:#00a99d;}.cls-6{fill:#de3f07;}.cls-7{fill:#fcce00;}.cls-8{fill:#fcee21;}.cls-9{fill:#ff0;}.cls-10{fill:#f15a24;}.cls-11{fill:#ff931e;}</style></defs><title>书库logo</title><g id="bookshadow"><path class="cls-1" d="M239.64,445.8l122.44,49.83v-192a17.08,17.08,0,0,0-10.64-15.82L229,238V430A17.08,17.08,0,0,0,239.64,445.8Z" transform="translate(-229 -75)"/></g><g id="wheat"><path class="cls-2" d="M273.36,262.57l-15.94,6.49v-25A2.23,2.23,0,0,1,258.8,242l15.94-6.48v25A2.23,2.23,0,0,1,273.36,262.57Z" transform="translate(-229 -75)"/><path class="cls-3" d="M238.32,271.59l15.94,6.49v-25a2.22,2.22,0,0,0-1.39-2.06l-15.94-6.49v25A2.21,2.21,0,0,0,238.32,271.59Z" transform="translate(-229 -75)"/><path class="cls-2" d="M273.38,232l-15.94,6.48v-25a2.22,2.22,0,0,1,1.39-2.06L274.76,205v25A2.23,2.23,0,0,1,273.38,232Z" transform="translate(-229 -75)"/><path class="cls-3" d="M238.34,241.05l15.94,6.49v-25a2.23,2.23,0,0,0-1.38-2.06L237,214v25A2.22,2.22,0,0,0,238.34,241.05Z" transform="translate(-229 -75)"/><path class="cls-2" d="M273.35,201.83l-15.93,6.49v-25a2.21,2.21,0,0,1,1.38-2.06l15.94-6.49v25A2.22,2.22,0,0,1,273.35,201.83Z" transform="translate(-229 -75)"/><path class="cls-3" d="M238.32,210.86l15.94,6.48v-25a2.23,2.23,0,0,0-1.39-2.06l-15.94-6.48v25A2.23,2.23,0,0,0,238.32,210.86Z" transform="translate(-229 -75)"/><path class="cls-2" d="M273.38,171.29l-15.94,6.49v-25a2.23,2.23,0,0,1,1.39-2.06l15.93-6.48v25A2.22,2.22,0,0,1,273.38,171.29Z" transform="translate(-229 -75)"/><path class="cls-3" d="M238.34,180.31l15.94,6.49v-25a2.22,2.22,0,0,0-1.39-2.06L237,153.26v25A2.21,2.21,0,0,0,238.34,180.31Z" transform="translate(-229 -75)"/><path class="cls-4" d="M237.89,150.34l1.45.59V84.69a4.55,4.55,0,0,0-.13-1.27l-1.45-.58v66.24A4.42,4.42,0,0,0,237.89,150.34Z" transform="translate(-229 -75)"/><path class="cls-4" d="M243.47,152.4l1.45.59V86.75a5.09,5.09,0,0,0-.12-1.27l-1.46-.58v66.24A4.52,4.52,0,0,0,243.47,152.4Z" transform="translate(-229 -75)"/><path class="cls-4" d="M249,154.62l1.46.58V89a4.42,4.42,0,0,0-.13-1.26l-1.45-.59v66.24A5.09,5.09,0,0,0,249,154.62Z" transform="translate(-229 -75)"/><path class="cls-4" d="M255.44,148.58a.79.79,0,0,0,.53-.74V90.69a4.42,4.42,0,0,0-.13-1.26l-1.45-.59v60.1Q254.92,148.75,255.44,148.58Z" transform="translate(-229 -75)"/><path class="cls-4" d="M272.86,142.51l-1.45.58V76.85a5.06,5.06,0,0,1,.12-1.26L273,75v66.24A4.55,4.55,0,0,1,272.86,142.51Z" transform="translate(-229 -75)"/><path class="cls-4" d="M267.33,144.72l-1.46.59V79.06A4.52,4.52,0,0,1,266,77.8l1.45-.59v66.25A5.06,5.06,0,0,1,267.33,144.72Z" transform="translate(-229 -75)"/><path class="cls-4" d="M261.81,146.45l-1.45.59V80.79a4.52,4.52,0,0,1,.13-1.26l1.45-.59v66.25A4.52,4.52,0,0,1,261.81,146.45Z" transform="translate(-229 -75)"/><path class="cls-2" d="M273.42,292.36l-15.94,6.49v-25a2.22,2.22,0,0,1,1.38-2.05l15.94-6.49v25A2.21,2.21,0,0,1,273.42,292.36Z" transform="translate(-229 -75)"/><path class="cls-3" d="M238.38,302.49,254.32,309V284a2.22,2.22,0,0,0-1.39-2.06L237,275.44v25A2.21,2.21,0,0,0,238.38,302.49Z" transform="translate(-229 -75)"/></g><g id="wheat-2" data-name="wheat"><path class="cls-2" d="M314.92,304.18,299,310.67v-25a2.23,2.23,0,0,1,1.39-2.06l15.93-6.48v25A2.22,2.22,0,0,1,314.92,304.18Z" transform="translate(-229 -75)"/><path class="cls-4" d="M279.88,313.2l15.94,6.49v-25a2.22,2.22,0,0,0-1.39-2.06l-15.93-6.49v25A2.21,2.21,0,0,0,279.88,313.2Z" transform="translate(-229 -75)"/><path class="cls-2" d="M314.94,273.64,299,280.12v-25a2.22,2.22,0,0,1,1.39-2.06l15.94-6.49v25A2.24,2.24,0,0,1,314.94,273.64Z" transform="translate(-229 -75)"/><path class="cls-4" d="M279.91,282.66l15.93,6.49v-25a2.23,2.23,0,0,0-1.38-2.06l-15.94-6.48v25A2.23,2.23,0,0,0,279.91,282.66Z" transform="translate(-229 -75)"/><path class="cls-2" d="M314.92,243.44,299,249.93v-25a2.22,2.22,0,0,1,1.38-2.06l15.94-6.49v25A2.21,2.21,0,0,1,314.92,243.44Z" transform="translate(-229 -75)"/><path class="cls-4" d="M279.88,252.47,295.82,259V234a2.23,2.23,0,0,0-1.39-2.06l-15.93-6.48v25A2.22,2.22,0,0,0,279.88,252.47Z" transform="translate(-229 -75)"/><path class="cls-2" d="M314.94,212.9,299,219.39v-25a2.23,2.23,0,0,1,1.39-2.06l15.94-6.48v25A2.23,2.23,0,0,1,314.94,212.9Z" transform="translate(-229 -75)"/><path class="cls-4" d="M279.9,221.92l15.94,6.49v-25a2.21,2.21,0,0,0-1.38-2.06l-15.94-6.49v25A2.22,2.22,0,0,0,279.9,221.92Z" transform="translate(-229 -75)"/><path class="cls-4" d="M279.45,192l1.45.59V126.3a5.09,5.09,0,0,0-.12-1.27l-1.46-.58v66.24A4.42,4.42,0,0,0,279.45,192Z" transform="translate(-229 -75)"/><path class="cls-4" d="M285,194l1.46.59V128.36a4.55,4.55,0,0,0-.13-1.27l-1.45-.58v66.24A5.06,5.06,0,0,0,285,194Z" transform="translate(-229 -75)"/><path class="cls-4" d="M290.57,196.23l1.45.58V130.57a4.42,4.42,0,0,0-.13-1.26l-1.45-.59V195A4.55,4.55,0,0,0,290.57,196.23Z" transform="translate(-229 -75)"/><path class="cls-4" d="M297,190.19a.77.77,0,0,0,.53-.73V132.3a4.94,4.94,0,0,0-.12-1.26l-1.46-.59v60.1Q296.48,190.35,297,190.19Z" transform="translate(-229 -75)"/><path class="cls-4" d="M314.42,184.12l-1.45.58V118.46a4.52,4.52,0,0,1,.13-1.26l1.45-.59v66.24A4.55,4.55,0,0,1,314.42,184.12Z" transform="translate(-229 -75)"/><path class="cls-4" d="M308.89,186.33l-1.45.59V120.67a5.06,5.06,0,0,1,.12-1.26l1.46-.59v66.25A4.52,4.52,0,0,1,308.89,186.33Z" transform="translate(-229 -75)"/><path class="cls-4" d="M303.38,188.06l-1.45.59V122.4a5.06,5.06,0,0,1,.12-1.26l1.45-.59V186.8A5.06,5.06,0,0,1,303.38,188.06Z" transform="translate(-229 -75)"/><path class="cls-2" d="M315,334,299,340.46v-25a2.21,2.21,0,0,1,1.39-2l15.94-6.49v25A2.22,2.22,0,0,1,315,334Z" transform="translate(-229 -75)"/><path class="cls-4" d="M279.94,344.1l15.94,6.49v-25a2.22,2.22,0,0,0-1.38-2.06l-15.94-6.49v25A2.22,2.22,0,0,0,279.94,344.1Z" transform="translate(-229 -75)"/></g><g id="bookshadow-2" data-name="bookshadow"><path class="cls-1" d="M460.54,349.42,338.1,399.25v-192a17.06,17.06,0,0,1,10.64-15.81l122.44-49.84v192A17.07,17.07,0,0,1,460.54,349.42Z" transform="translate(-229 -75)"/></g><path id="gear" class="cls-5" d="M309.61,431.49a94.91,94.91,0,0,0,9.73,9.37l17.89-12.3c.23.17.45.33.69.49,1.31.91,2.65,1.76,4,2.58L337.62,453A96.74,96.74,0,0,0,350,458.27l12.34-18.08q2.69.69,5.42,1.17l3.74,21.69a97,97,0,0,0,13.41.47l5-21.47q2.78-.32,5.52-.84l11.43,19.05A97.12,97.12,0,0,0,419.48,456l-3.1-22q2.56-1.32,5-2.84l17.69,13.75a98.61,98.61,0,0,0,10.05-8.41L438.26,417c1.32-1.49,2.6-3.05,3.82-4.66l21.6,6.48A99.47,99.47,0,0,0,470,407.57l-17.26-14.28c.76-2,1.44-4,2-6l22.59-1.77a97.78,97.78,0,0,0,1.7-12.57l-21.34-7.11q0-3.36-.32-6.69l20.45-9.82a98,98,0,0,0-2.93-12.17l-22.49,1.08c-.85-2.17-1.8-4.31-2.85-6.4L465,315.29a96.14,96.14,0,0,0-7.11-10.13l-20.53,9.11c-1.64-1.77-3.36-3.46-5.18-5.09l8.4-20.79c-1.1-.83-2.21-1.64-3.34-2.42q-3.44-2.36-7-4.38l-15.73,15.78a73.43,73.43,0,0,0-6.8-2.9l.32-22.14a95.21,95.21,0,0,0-12.16-2.54L387,290c-2.46-.19-4.93-.25-7.39-.2l-7.58-20.41a96.59,96.59,0,0,0-12.41,2.11l-1,21.7c-2.32.72-4.6,1.54-6.85,2.48l-14.22-16.06a97.07,97.07,0,0,0-11,6.58l6.86,20.35q-2.75,2.19-5.3,4.67l-18.83-9.71a98.09,98.09,0,0,0-7.49,9.54c-.17.25-.33.5-.5.74L315,328.12q-1.69,3-3.1,6l-21-2.24a99.36,99.36,0,0,0-3.84,12.65l18.6,10.32c-.31,2.12-.54,4.25-.67,6.37l-20.39,5.5a97.43,97.43,0,0,0,1,13.34L306.75,383c.45,2,1,3.93,1.57,5.87l-17.17,12.58a96,96,0,0,0,5.7,12.21l20.92-5c1.08,1.61,2.21,3.18,3.42,4.71ZM354,346.89a33.91,33.91,0,0,1,60.6,28.33l6.23,4.29-13,18.81-6.44-4.43a33.92,33.92,0,0,1-47.43-47Z" transform="translate(-229 -75)"/><g id="book"><path class="cls-6" d="M257.44,434.14,379.88,484V292a17.07,17.07,0,0,0-10.64-15.81L246.8,226.31v192A17.07,17.07,0,0,0,257.44,434.14Z" transform="translate(-229 -75)"/></g><g id="book-2" data-name="book"><path class="cls-7" d="M442.75,337.76,320.3,387.59v-192a17.08,17.08,0,0,1,10.64-15.81l122.45-49.83v192A17.08,17.08,0,0,1,442.75,337.76Z" transform="translate(-229 -75)"/></g><path class="cls-8" d="M552.58,422.46l-44.86,2.63,1.8-13.16,45-2.63Zm-35.73-63.14,20.08-28.11-3.6-3.46h31l-22.43,31.57h19.93l-22,28.8h17.72l-1.8,13.15H511l1.8-13.15,12.74-15.65H515.05Zm63.7,50.95,8.86-62.86H570.72l2.07-14.4H633.3l-2.08,14.4H613l-8.87,62.86H625L622.92,425h-65.5l2.08-14.68Z" transform="translate(-229 -75)"/><path class="cls-8" d="M752.52,327.75l5.81,21H745.18L742,372.33h10.39L746.7,413a10.61,10.61,0,0,1-3.6,6.71,10.34,10.34,0,0,1-7.06,2.71H708.62L721,409.3l3.32-23.68H695.33l-6,41.82H663.07l5.81-41.82H637.45l1.8-13.29h31.57l3-22.15H647.7L649.5,337h26.31l.55-4-4.43-5.26H703.5L702.12,337H727l-2.49-9.27Zm-52.2,22.43-3.19,22.15h18.55l3.05-22.15Z" transform="translate(-229 -75)"/><path class="cls-8" d="M824,330.65l-2.08,14.4H806.24l-7.76,19h20.77l-8.58,60.65H768.16l5-35H766l18.27-44.59h-9.55l2.08-14.4Zm-29.63,81.42,5-35.31h-5.67l-5,35.31Zm62.86-19.8-1.66,12.05H818.7l1.66-12.05Zm-38.35-7.75,10.66-36h20.21l-6.36,23.4h8.58l9.69-28.53h-34.2l1.8-13.15h55.53L883,343.39l-9.56,28.53h10.25l-6.51,46.24a10.25,10.25,0,0,1-3.53,6.58A9.86,9.86,0,0,1,867,427.3H820l11.49-12.05h24.92l4.29-30.73Z" transform="translate(-229 -75)"/><path class="cls-8" d="M948.44,375.1,954.39,333,950,327.75h31.57l-6.78,47.35h37l-1.93,13.15H961.87l-36.56,39.19H893.75l36.55-39.19h-31l1.94-13.15Zm-14-21.05,9.28,17.17H916l-9.28-17.17Zm4.3-21L948,350.18H920.33L911.05,333Zm65.49,94.43H975.3l-13.43-35.31h28.94Z" transform="translate(-229 -75)"/><path class="cls-9" d="M534.35,440.2l-1.9,14.4a2.93,2.93,0,0,1-.32,1.33,3.48,3.48,0,0,1-.88,1.07,4.27,4.27,0,0,1-1.23.7,3.93,3.93,0,0,1-1.42.25h-6.25l10.1,10.55H521.9L512.3,458l-1.45,10.55h-9.6l3.35-26.4-1.45-1.9Zm-20.6,4.8-1,8.15h10.6l.95-8.15Z" transform="translate(-229 -75)"/><path class="cls-9" d="M564.05,459.85H548.7l-.5,3.85h13.45l2.4-1.9-1.45,6.7H541.5a2.55,2.55,0,0,1-2.17-.95,3.79,3.79,0,0,1-.73-2.4L541,447.4h25ZM550.1,452.2l-.45,2.85h5.75l.5-2.85Z" transform="translate(-229 -75)"/><path class="cls-9" d="M589.15,437.3h9.6l-4.3,31.2h-21.6a2.55,2.55,0,0,1-2.17-.95,3.79,3.79,0,0,1-.73-2.4l2.4-17.75H587.7Zm-7.95,14.9-1.85,11.5h6.1l1.8-11.5Z" transform="translate(-229 -75)"/><path class="cls-9" d="M651.65,437.3h9.6L657,468.5h-21.6a2.59,2.59,0,0,1-2.18-.95,3.85,3.85,0,0,1-.72-2.4l2.4-17.75H650.2Zm-7.95,14.9-1.85,11.5H648l1.8-11.5Z" transform="translate(-229 -75)"/><path class="cls-9" d="M689,447.4a2.36,2.36,0,0,1,2.17,1.18,4.81,4.81,0,0,1,.73,2.62l-2.4,17.3h-21.6a2.59,2.59,0,0,1-2.18-.95,3.85,3.85,0,0,1-.72-2.4l2.4-17.75Zm-12.5,4.8-1.9,11.5h5.75l2-11.5Z" transform="translate(-229 -75)"/><path class="cls-9" d="M723.2,452.2H707.85L706,463.7h13.4l2.4-1.9-1,6.7H695.85l3.35-21.1h24.5Z" transform="translate(-229 -75)"/><path class="cls-9" d="M741.6,437.3l-1.9,13.9,6.25-4.3H756.5L743.05,456l10.55,12.5H743.05l-4.8-6.25-1,6.25h-9.6l4.3-29.75-1.4-1.45Z" transform="translate(-229 -75)"/><path class="cls-9" d="M817.45,440.2l3.8,28.3h-8.6l-1-7.7h-12l-3.35,7.7h-8.15l11.05-26.9-1.45-1.4ZM806.4,445l-4.8,11h9.6l-1.45-11Z" transform="translate(-229 -75)"/><path class="cls-9" d="M836.9,447.4l-.95,6.7,6.75-6.7h9.6L836,461.8l-1,6.7h-9.6l2.8-19.7-1-1.4Z" transform="translate(-229 -75)"/><path class="cls-9" d="M880.9,452.2H865.55l-1.9,11.5h13.4l2.4-1.9-1,6.7h-25l3.35-21.1h24.5Z" transform="translate(-229 -75)"/><path class="cls-9" d="M899.3,437.3l-1.4,10.1h15.35l-2.9,21.1h-9.6l2.4-16.3H897.4L895,468.5h-9.6l4.3-29.75-1-1.45Z" transform="translate(-229 -75)"/><path class="cls-9" d="M929.75,447.4l-2.9,21.1h-9.6l2.9-19.7-1.45-1.4Zm0-1.45H920.6l.5-5.75h9.6Z" transform="translate(-229 -75)"/><path class="cls-9" d="M952.4,447.4h9.15L950,468.5h-9.6l-5.25-19.2-1.45-1.9h10.1l2.85,12Z" transform="translate(-229 -75)"/><path class="cls-9" d="M990,459.85H974.65l-.5,3.85H987.6l2.4-1.9-1.45,6.7h-21.1a2.57,2.57,0,0,1-2.18-.95,3.85,3.85,0,0,1-.72-2.4L967,447.4H991.9Zm-14-7.65-.45,2.85h5.75l.5-2.85Z" transform="translate(-229 -75)"/><g id="book-3" data-name="book"><path class="cls-10" d="M422.36,263.82v47.77l-21.84,8.89V272.71l21.84-8.89m16-23.78-49.53,20.15a6.9,6.9,0,0,0-4.31,6.4v77.67l49.53-20.16a6.88,6.88,0,0,0,4.31-6.39V240Z" transform="translate(-229 -75)"/></g><g id="book-4" data-name="book"><path class="cls-11" d="M266.65,417.11l8.28,3V354.93a5.77,5.77,0,0,0-3.61-5.36l-8.28-3v65.16A5.8,5.8,0,0,0,266.65,417.11Z" transform="translate(-229 -75)"/></g></svg>